<svg width="24" height="24" viewBox="0 0 24 24" fill="none" xmlns="http://www.w3.org/2000/svg">
<path d="M21.1875 18.375H20.8942C21.0556 17.6918 21.1406 16.985 21.1406 16.2656C21.1406 11.2255 17.0401 7.125 12 7.125C6.95986 7.125 2.85938 11.2255 2.85938 16.2656C2.85938 16.985 2.94436 17.6918 3.10584 18.375H2.8125C1.26169 18.375 0 19.6367 0 21.1875C0 22.7383 1.26169 24 2.8125 24H21.1875C22.7383 24 24 22.7383 24 21.1875C24 19.6367 22.7383 18.375 21.1875 18.375ZM12 8.53125C16.2647 8.53125 19.7344 12.0009 19.7344 16.2656C19.7344 18.7928 18.5094 21.1426 16.4475 22.5938H7.55255C5.49061 21.1426 4.26562 18.7928 4.26562 16.2656C4.26562 12.0009 7.73527 8.53125 12 8.53125ZM1.40625 21.1875C1.40625 20.4121 2.03709 19.7812 2.8125 19.7812H3.561C3.99352 20.8202 4.61625 21.7746 5.40295 22.5938H2.8125C2.03709 22.5938 1.40625 21.9629 1.40625 21.1875ZM21.1875 22.5938H18.597C19.3838 21.7746 20.0065 20.8202 20.439 19.7812H21.1875C21.9629 19.7812 22.5938 20.4121 22.5938 21.1875C22.5938 21.9629 21.9629 22.5938 21.1875 22.5938Z" fill="#EA5455"/>
<path d="M12 18.375C11.6123 18.375 11.2969 18.0596 11.2969 17.6719C11.2969 17.2836 10.9821 16.9688 10.5938 16.9688C10.2054 16.9688 9.89062 17.2836 9.89062 17.6719C9.89062 18.5885 10.4785 19.3701 11.2969 19.6603V20.4844C11.2969 20.8727 11.6117 21.1875 12 21.1875C12.3883 21.1875 12.7031 20.8727 12.7031 20.4844V19.6603C13.5215 19.3701 14.1094 18.5885 14.1094 17.6719C14.1094 16.5088 13.1631 15.5625 12 15.5625C11.6123 15.5625 11.2969 15.2471 11.2969 14.8594C11.2969 14.4717 11.6123 14.1562 12 14.1562C12.3877 14.1562 12.7031 14.4717 12.7031 14.8594C12.7031 15.2477 13.0179 15.5625 13.4062 15.5625C13.7946 15.5625 14.1094 15.2477 14.1094 14.8594C14.1094 13.9427 13.5215 13.1612 12.7031 12.8709V12.0469C12.7031 11.6586 12.3883 11.3438 12 11.3438C11.6117 11.3438 11.2969 11.6586 11.2969 12.0469V12.8709C10.4785 13.1612 9.89062 13.9427 9.89062 14.8594C9.89062 16.0225 10.8369 16.9688 12 16.9688C12.3877 16.9688 12.7031 17.2842 12.7031 17.6719C12.7031 18.0596 12.3877 18.375 12 18.375Z" fill="#EA5455"/>
<path d="M12 5.625C12.3883 5.625 12.7031 5.31019 12.7031 4.92188V2.10938C12.7031 1.72106 12.3883 1.40625 12 1.40625C11.6117 1.40625 11.2969 1.72106 11.2969 2.10938V4.92188C11.2969 5.31019 11.6117 5.625 12 5.625Z" fill="#EA5455"/>
<path d="M14.8125 4.21875C15.2008 4.21875 15.5156 3.90394 15.5156 3.51562V0.703125C15.5156 0.314812 15.2008 0 14.8125 0C14.4242 0 14.1094 0.314812 14.1094 0.703125V3.51562C14.1094 3.90394 14.4242 4.21875 14.8125 4.21875Z" fill="#EA5455"/>
<path d="M9.1875 4.21875C9.57581 4.21875 9.89062 3.90394 9.89062 3.51562V0.703125C9.89062 0.314812 9.57581 0 9.1875 0C8.79919 0 8.48438 0.314812 8.48438 0.703125V3.51562C8.48438 3.90394 8.79919 4.21875 9.1875 4.21875Z" fill="#EA5455"/>
</svg>
