<svg width="24" height="24" viewBox="0 0 24 24" fill="none" xmlns="http://www.w3.org/2000/svg">
<path fill-rule="evenodd" clip-rule="evenodd" d="M15.8145 0.705281L20.3343 4.98131C20.8467 5.46609 21.1406 6.14873 21.1406 6.85416V21.4219C21.1406 22.8435 19.9841 24 18.5625 24H5.4375C4.01592 24 2.85938 22.8435 2.85938 21.4219V2.57812C2.85938 1.15655 4.01592 0 5.4375 0H14.0427C14.7045 0 15.3337 0.250453 15.8145 0.705281ZM15.4688 5.625H18.9685L15.2344 2.09231V5.39062C15.2344 5.51986 15.3395 5.625 15.4688 5.625ZM5.4375 22.5938H18.5625C19.2087 22.5938 19.7344 22.068 19.7344 21.4219V7.03125H15.4688C14.5641 7.03125 13.8281 6.29527 13.8281 5.39062V1.40625H5.4375C4.79133 1.40625 4.26562 1.93195 4.26562 2.57812V21.4219C4.26562 22.068 4.79133 22.5938 5.4375 22.5938ZM6.70312 9.375H17.0156C17.4039 9.375 17.7188 9.68981 17.7188 10.0781C17.7188 10.4664 17.4039 10.7812 17.0156 10.7812H6.70312C6.31481 10.7812 6 10.4664 6 10.0781C6 9.68981 6.31481 9.375 6.70312 9.375ZM17.0156 13.125H6.70312C6.31481 13.125 6 13.4398 6 13.8281C6 14.2164 6.31481 14.5312 6.70312 14.5312H17.0156C17.4039 14.5312 17.7188 14.2164 17.7188 13.8281C17.7188 13.4398 17.4039 13.125 17.0156 13.125ZM6.70312 16.875H10.1119C10.5002 16.875 10.815 17.1898 10.815 17.5781C10.815 17.9664 10.5002 18.2812 10.1119 18.2812H6.70312C6.31481 18.2812 6 17.9664 6 17.5781C6 17.1898 6.31481 16.875 6.70312 16.875Z" fill="#5A8DEE"/>
</svg>
