<svg width="24" height="24" viewBox="0 0 24 24" fill="none" xmlns="http://www.w3.org/2000/svg">
<path fill-rule="evenodd" clip-rule="evenodd" d="M8.33 21H2.75C1.233 21 0 19.767 0 18.25V2.75C0 1.233 1.233 0 2.75 0H14.25C15.767 0 17 1.233 17 2.75V9.83C17 10.244 16.664 10.58 16.25 10.58C15.836 10.58 15.5 10.244 15.5 9.83V2.75C15.5 2.061 14.939 1.5 14.25 1.5H2.75C2.061 1.5 1.5 2.061 1.5 2.75V18.25C1.5 18.939 2.061 19.5 2.75 19.5H8.33C8.744 19.5 9.08 19.836 9.08 20.25C9.08 20.664 8.744 21 8.33 21ZM11.712 24C10.768 24 10 23.235 10 22.296C10 21.961 10.094 21.645 10.272 21.38L15.543 12.815C15.838 12.316 16.398 12 17 12C17.602 12 18.162 12.316 18.463 12.827L23.744 21.405C23.906 21.645 24 21.961 24 22.296C24 23.235 23.232 24 22.288 24H11.712ZM17 13.5C16.912 13.5 16.853 13.548 16.828 13.589L11.5 22.296C11.5 22.406 11.597 22.5 11.712 22.5H22.288C22.403 22.5 22.5 22.406 22.5 22.296C22.5 22.263 22.494 22.233 22.483 22.218L17.178 13.602C17.147 13.548 17.088 13.5 17 13.5ZM17 19.5C16.586 19.5 16.25 19.164 16.25 18.75V16.75C16.25 16.336 16.586 16 17 16C17.414 16 17.75 16.336 17.75 16.75V18.75C17.75 19.164 17.414 19.5 17 19.5ZM17.75 21.25C17.75 21.6642 17.4142 22 17 22C16.5858 22 16.25 21.6642 16.25 21.25C16.25 20.8358 16.5858 20.5 17 20.5C17.4142 20.5 17.75 20.8358 17.75 21.25ZM3.74999 9.5H13.25C13.664 9.5 14 9.164 14 8.75C14 8.336 13.664 8 13.25 8H3.74999C3.33599 8 2.99999 8.336 2.99999 8.75C2.99999 9.164 3.33599 9.5 3.74999 9.5ZM9.24999 13.5H3.74999C3.33599 13.5 2.99999 13.164 2.99999 12.75C2.99999 12.336 3.33599 12 3.74999 12H9.24999C9.66399 12 9.99999 12.336 9.99999 12.75C9.99999 13.164 9.66399 13.5 9.24999 13.5ZM3.74999 5.5H8.24999C8.66399 5.5 8.99999 5.164 8.99999 4.75C8.99999 4.336 8.66399 4 8.24999 4H3.74999C3.33599 4 2.99999 4.336 2.99999 4.75C2.99999 5.164 3.33599 5.5 3.74999 5.5Z" fill="#00CFE8"/>
</svg>
