<svg width="20" height="20" viewBox="0 0 20 20" fill="none" xmlns="http://www.w3.org/2000/svg">
<path d="M9.99995 1.66675C5.40811 1.66675 1.66661 5.40825 1.66661 10.0001C1.66661 11.2756 1.92171 12.5511 2.51695 13.6565L2.51695 16.8028C2.51695 17.1429 2.77205 17.4831 3.19722 17.4831H6.34348C7.44892 18.0783 8.72443 18.3334 9.99995 18.3334C14.5918 18.3334 18.3333 14.5919 18.3333 10.0001C18.3333 5.40825 14.5918 1.66675 9.99995 1.66675ZM7.44892 10.8504C7.02375 10.8504 6.59858 10.4253 6.59858 10.0001C6.59858 9.57491 7.02375 9.14974 7.44892 9.14974C7.87409 9.14974 8.29926 9.57491 8.29926 10.0001C8.29926 10.4253 7.87409 10.8504 7.44892 10.8504ZM9.99995 10.8504C9.57478 10.8504 9.14961 10.4253 9.14961 10.0001C9.14961 9.57491 9.57478 9.14974 9.99995 9.14974C10.4251 9.14974 10.8503 9.57491 10.8503 10.0001C10.8503 10.4253 10.4251 10.8504 9.99995 10.8504ZM12.551 10.8504C12.1258 10.8504 11.7006 10.4253 11.7006 10.0001C11.7006 9.57491 12.1258 9.14974 12.551 9.14974C12.9761 9.14974 13.4013 9.57491 13.4013 10.0001C13.4013 10.4253 12.9761 10.8504 12.551 10.8504Z" fill="#F2994A"/>
</svg>
