<svg width="18" height="18" viewBox="0 0 18 18" fill="none" xmlns="http://www.w3.org/2000/svg">
<path fill-rule="evenodd" clip-rule="evenodd" d="M5.3915 0.666016L12.6165 0.666016C15.4415 0.666016 17.3332 2.64935 17.3332 5.59935L17.3332 12.4085C17.3332 15.3502 15.4415 17.3327 12.6165 17.3327L5.3915 17.3327C2.5665 17.3327 0.666504 15.3502 0.666504 12.4085L0.666504 5.59935C0.666504 2.64935 2.5665 0.666016 5.3915 0.666016ZM11.5082 11.4994C11.7915 11.2169 11.7915 10.7585 11.5082 10.4752L10.0248 8.99186L11.5082 7.50769C11.7915 7.22519 11.7915 6.75852 11.5082 6.47519C11.2248 6.19102 10.7665 6.19102 10.4748 6.47519L8.99984 7.95769L7.51651 6.47519C7.22484 6.19102 6.76651 6.19102 6.48318 6.47519C6.19984 6.75852 6.19984 7.22519 6.48318 7.50769L7.96651 8.99186L6.48318 10.4669C6.19984 10.7585 6.19984 11.2169 6.48318 11.4994C6.62484 11.641 6.81651 11.7169 6.99984 11.7169C7.19151 11.7169 7.37484 11.641 7.51651 11.4994L8.99984 10.0252L10.4832 11.4994C10.6248 11.6502 10.8082 11.7169 10.9915 11.7169C11.1832 11.7169 11.3665 11.641 11.5082 11.4994Z" fill="#EB5757"/>
</svg>
