<svg width="18" height="16" viewBox="0 0 18 16" fill="none" xmlns="http://www.w3.org/2000/svg">
<path d="M18 14.2222V1.77778C18 1.30628 17.7893 0.854097 17.4142 0.520699C17.0391 0.187301 16.5304 0 16 0H2C1.46957 0 0.960859 0.187301 0.585786 0.520699C0.210714 0.854097 0 1.30628 0 1.77778V14.2222C0 14.6937 0.210714 15.1459 0.585786 15.4793C0.960859 15.8127 1.46957 16 2 16H16C16.5304 16 17.0391 15.8127 17.4142 15.4793C17.7893 15.1459 18 14.6937 18 14.2222ZM6 13.3333H4V8H6V13.3333ZM10 13.3333H8V3.55556H10V13.3333ZM14 13.3333H12V6.22222H14V13.3333Z" fill="#939393"/>
</svg>
