<svg width="28" height="28" viewBox="0 0 28 28" fill="none" xmlns="http://www.w3.org/2000/svg">
<rect width="28" height="28" rx="4" fill="#5A8DEE"/>
<path d="M23 20.2222V7.77778C23 7.30628 22.7893 6.8541 22.4142 6.5207C22.0391 6.1873 21.5304 6 21 6H7C6.46957 6 5.96086 6.1873 5.58579 6.5207C5.21071 6.8541 5 7.30628 5 7.77778V20.2222C5 20.6937 5.21071 21.1459 5.58579 21.4793C5.96086 21.8127 6.46957 22 7 22H21C21.5304 22 22.0391 21.8127 22.4142 21.4793C22.7893 21.1459 23 20.6937 23 20.2222ZM11 19.3333H9V14H11V19.3333ZM15 19.3333H13V9.55556H15V19.3333ZM19 19.3333H17V12.2222H19V19.3333Z" fill="white"/>
</svg>
