<svg width="16" height="18" viewBox="0 0 16 18" fill="none" xmlns="http://www.w3.org/2000/svg">
<path fill-rule="evenodd" clip-rule="evenodd" d="M14.9059 3.36922C15.2301 3.36922 15.5 3.63838 15.5 3.98088V4.29754C15.5 4.63171 15.2301 4.90921 14.9059 4.90921H1.09488C0.769883 4.90921 0.5 4.63171 0.5 4.29754V3.98088C0.5 3.63838 0.769883 3.36922 1.09488 3.36922H3.52464C4.01821 3.36922 4.44775 3.01839 4.55879 2.5234L4.68603 1.95507C4.88378 1.18091 5.53458 0.666748 6.27939 0.666748H9.72061C10.4573 0.666748 11.1154 1.18091 11.3059 1.91424L11.442 2.52256C11.5522 3.01839 11.9818 3.36922 12.4762 3.36922H14.9059ZM13.6715 14.9451C13.9252 12.581 14.3693 6.96435 14.3693 6.90768C14.3855 6.73602 14.3296 6.57352 14.2186 6.44269C14.0994 6.32019 13.9487 6.24769 13.7825 6.24769H2.22376C2.05681 6.24769 1.89796 6.32019 1.78774 6.44269C1.67589 6.57352 1.62078 6.73602 1.62889 6.90768C1.63037 6.9181 1.64631 7.11594 1.67295 7.44669C1.79131 8.91606 2.12097 13.0085 2.33399 14.9451C2.48473 16.3718 3.42081 17.2684 4.77671 17.3009C5.82302 17.3251 6.90093 17.3334 8.00316 17.3334C9.04136 17.3334 10.0958 17.3251 11.1745 17.3009C12.5774 17.2767 13.5127 16.3959 13.6715 14.9451Z" fill="#EB5757"/>
</svg>
