<svg width="16" height="18" viewBox="0 0 16 18" fill="none" xmlns="http://www.w3.org/2000/svg">
<path fill-rule="evenodd" clip-rule="evenodd" d="M4.50833 0.666748L11.4925 0.666748C14.0667 0.666748 15.5 2.15008 15.5 4.69175L15.5 13.3001C15.5 15.8834 14.0667 17.3334 11.4925 17.3334H4.50833C1.975 17.3334 0.5 15.8834 0.5 13.3001L0.5 4.69175C0.5 2.15008 1.975 0.666748 4.50833 0.666748ZM4.73333 4.55008V4.54174H7.22416C7.58333 4.54174 7.87499 4.83341 7.87499 5.19091C7.87499 5.55841 7.58333 5.85008 7.22416 5.85008H4.73333C4.37416 5.85008 4.08333 5.55841 4.08333 5.20008C4.08333 4.84174 4.37416 4.55008 4.73333 4.55008ZM4.73333 9.61674L11.2667 9.61674C11.625 9.61674 11.9167 9.32507 11.9167 8.96674C11.9167 8.6084 11.625 8.3159 11.2667 8.3159L4.73333 8.3159C4.37416 8.3159 4.08333 8.6084 4.08333 8.96674C4.08333 9.32507 4.37416 9.61674 4.73333 9.61674ZM4.73334 13.4251L11.2667 13.4251C11.5992 13.3918 11.85 13.1076 11.85 12.7751C11.85 12.4334 11.5992 12.1501 11.2667 12.1168L4.73334 12.1168C4.48334 12.0918 4.24167 12.2084 4.10834 12.4251C3.97501 12.6334 3.97501 12.9084 4.10834 13.1251C4.24167 13.3334 4.48334 13.4584 4.73334 13.4251Z" fill="#BB6BD9"/>
</svg>
