<svg width="20" height="20" viewBox="0 0 20 20" fill="none" xmlns="http://www.w3.org/2000/svg">
<path d="M18.0783 9.06471C17.9932 8.21437 17.398 7.44906 16.6327 7.19396C16.6327 6.93886 16.6327 6.59872 16.5477 6.25858C16.4626 5.40824 15.7824 4.64294 14.932 4.47287C14.932 4.3028 14.932 4.0477 14.847 3.7926C14.762 2.68716 13.8266 1.83682 12.7211 1.75178C11.9558 1.75178 10.8504 1.66675 10.0001 1.66675C9.14971 1.66675 8.04427 1.75178 7.27896 1.75178C6.17352 1.83682 5.23815 2.68716 5.15311 3.7926C5.15311 4.0477 5.15311 4.21777 5.06808 4.47287C4.21774 4.72797 3.53747 5.40824 3.45243 6.25858C3.45243 6.59872 3.3674 6.93886 3.3674 7.19396C2.60209 7.44906 2.09189 8.21437 1.92182 9.06471C1.83679 10.0851 1.66672 11.4457 1.66672 12.5511C1.66672 13.6565 1.83679 15.0171 1.92182 16.0375C2.00685 17.1429 2.94223 17.9933 4.04767 18.0783C5.74835 18.1633 8.1293 18.3334 10.0001 18.3334C11.8708 18.3334 14.2518 18.1633 15.9524 18.0783C17.0579 17.9933 17.9932 17.1429 18.0783 16.0375C18.1633 15.0171 18.3334 13.6565 18.3334 12.5511C18.3334 11.4457 18.1633 10.0851 18.0783 9.06471ZM7.364 3.11233C8.1293 3.11233 9.14971 3.02729 10.0001 3.02729C10.8504 3.02729 11.8708 3.11233 12.6361 3.11233C13.1463 3.11233 13.4864 3.5375 13.5715 3.96267C13.5715 4.13273 13.5715 4.21777 13.5715 4.38784C12.466 4.38784 11.1055 4.3028 10.0001 4.3028C8.89461 4.3028 7.53407 4.3028 6.42862 4.38784C6.42862 4.21777 6.42862 4.13273 6.42862 3.96267C6.51366 3.45246 6.85379 3.11233 7.364 3.11233ZM12.1259 12.211L9.82998 13.9116C9.74495 13.9967 9.57488 14.0817 9.40481 14.0817C9.23475 14.0817 9.14971 14.0817 8.97964 13.9116L7.8742 13.0613C7.6191 12.8912 7.53407 12.4661 7.78917 12.211C8.04427 11.9559 8.38441 11.8708 8.63951 12.1259L9.40481 12.7212L11.2756 11.2756C11.5307 11.1055 11.9558 11.1055 12.1259 11.3606C12.296 11.6157 12.381 11.9559 12.1259 12.211ZM10.0001 6.76879C8.38441 6.76879 6.34359 6.85382 4.72794 6.93886C4.72794 6.76879 4.72794 6.59872 4.81298 6.34362C4.89801 5.91845 5.23815 5.57831 5.74835 5.57831C7.02386 5.49328 8.72454 5.49328 10.0851 5.49328C11.4456 5.49328 13.1463 5.57831 14.4218 5.57831C14.932 5.57831 15.2722 5.91845 15.3572 6.34362C15.3572 6.51369 15.4422 6.76879 15.4422 6.93886C13.6565 6.93886 11.6157 6.76879 10.0001 6.76879Z" fill="#56CCF2"/>
</svg>
