<svg width="16" height="16" viewBox="0 0 16 16" fill="none" xmlns="http://www.w3.org/2000/svg">
<path d="M11 9.031V13H2V4H5V2H1C0.448 2 0 2.448 0 3V14C0 14.553 0.448 15 1 15H12C12.553 15 13 14.553 13 14V9.031H11Z" fill="white"/>
<path d="M15.8 4.10011L11.8 1.10011C11.65 0.986112 11.446 0.968112 11.277 1.05311C11.107 1.13811 11 1.31111 11 1.50011V3.00011H9.5C6.467 3.00011 4 5.46711 4 8.50011C4 8.73211 4.16 8.93411 4.385 8.98711C4.423 8.99611 4.462 9.00011 4.5 9.00011C4.686 9.00011 4.861 8.89611 4.947 8.72411L5.065 8.48911C5.832 6.95411 7.374 6.00011 9.09 6.00011H11V7.50011C11 7.68911 11.107 7.86211 11.276 7.94711C11.445 8.03211 11.649 8.01411 11.8 7.90011L15.8 4.90011C15.926 4.80611 16 4.65711 16 4.50011C16 4.34311 15.926 4.19411 15.8 4.10011Z" fill="white"/>
</svg>
