<svg width="32" height="32" viewBox="0 0 32 32" fill="none" xmlns="http://www.w3.org/2000/svg">
<rect x="0.5" y="0.5" width="31" height="31" rx="5.5" fill="white" stroke="#5A8DEE"/>
<path d="M25.1667 21.8333H22.9475C22.5867 20.6325 21.4833 19.75 20.1667 19.75C18.85 19.75 17.7475 20.6325 17.3859 21.8333H6.83332C6.37332 21.8333 6 22.2067 6 22.6667C6 23.1267 6.37332 23.5 6.83332 23.5H17.3858C17.7466 24.7008 18.85 25.5833 20.1666 25.5833C21.4833 25.5833 22.5858 24.7008 22.9475 23.5H25.1666C25.6275 23.5 26 23.1267 26 22.6667C26 22.2067 25.6275 21.8333 25.1667 21.8333ZM20.1667 23.9167C19.4775 23.9167 18.9167 23.3559 18.9167 22.6667C18.9167 21.9775 19.4775 21.4167 20.1667 21.4167C20.8559 21.4167 21.4167 21.9775 21.4167 22.6667C21.4167 23.3559 20.8558 23.9167 20.1667 23.9167Z" fill="#5A8DEE"/>
<path d="M25.1667 8.5H22.9475C22.5858 7.29918 21.4833 6.41668 20.1667 6.41668C18.85 6.41668 17.7475 7.29918 17.3858 8.5H6.83332C6.37332 8.5 6 8.87332 6 9.33332C6 9.79332 6.37332 10.1666 6.83332 10.1666H17.3858C17.7475 11.3675 18.85 12.25 20.1667 12.25C21.4834 12.25 22.5859 11.3675 22.9475 10.1667H25.1667C25.6275 10.1667 26 9.79336 26 9.33336C26 8.87336 25.6275 8.5 25.1667 8.5ZM20.1667 10.5833C19.4775 10.5833 18.9167 10.0225 18.9167 9.33332C18.9167 8.64414 19.4775 8.08332 20.1667 8.08332C20.8559 8.08332 21.4167 8.64414 21.4167 9.33332C21.4167 10.0225 20.8558 10.5833 20.1667 10.5833Z" fill="#5A8DEE"/>
<path d="M25.1667 15.1667H14.6142C14.2525 13.9659 13.15 13.0834 11.8334 13.0834C10.5167 13.0834 9.41418 13.9659 9.05254 15.1667H6.83332C6.37332 15.1667 6 15.54 6 16C6 16.46 6.37332 16.8333 6.83332 16.8333H9.0525C9.41418 18.0341 10.5167 18.9166 11.8333 18.9166C13.15 18.9166 14.2525 18.0341 14.6141 16.8333H25.1666C25.6275 16.8333 26 16.46 26 16C26 15.54 25.6275 15.1667 25.1667 15.1667ZM11.8333 17.25C11.1441 17.25 10.5833 16.6892 10.5833 16C10.5833 15.3108 11.1441 14.75 11.8333 14.75C12.5225 14.75 13.0833 15.3108 13.0833 16C13.0833 16.6892 12.5225 17.25 11.8333 17.25Z" fill="#5A8DEE"/>
</svg>
