<?xml version="1.0" encoding="UTF-8"?>
<svg xmlns="http://www.w3.org/2000/svg" xmlns:xlink="http://www.w3.org/1999/xlink" viewBox="0 0 24 24" width="24px" height="24px">
<g id="surface13603904">
<path style=" stroke:none;fill-rule:nonzero;fill:rgb(100%,100%,100%);fill-opacity:1;" d="M 10.078125 1.441406 C 5.59375 1.441406 1.921875 5.113281 1.921875 9.601562 C 1.921875 14.085938 5.59375 17.761719 10.078125 17.761719 C 11.855469 17.761719 13.5 17.175781 14.84375 16.203125 L 21.160156 22.519531 L 22.519531 21.160156 L 16.261719 14.902344 C 17.488281 13.472656 18.238281 11.621094 18.238281 9.601562 C 18.238281 5.113281 14.566406 1.441406 10.078125 1.441406 Z M 10.078125 2.398438 C 14.042969 2.398438 17.28125 5.636719 17.28125 9.601562 C 17.28125 13.5625 14.042969 16.800781 10.078125 16.800781 C 6.117188 16.800781 2.878906 13.5625 2.878906 9.601562 C 2.878906 5.636719 6.117188 2.398438 10.078125 2.398438 Z M 10.078125 2.398438 "/>
</g>
</svg>
