<svg width="15" height="16" viewBox="0 0 15 16" fill="none" xmlns="http://www.w3.org/2000/svg">
<g clip-path="url(#clip0_152:1431)">
<path d="M3.6508 9.031V13H12.2937V4H9.41271V2H13.254C13.7841 2 14.2143 2.448 14.2143 3V14C14.2143 14.553 13.7841 15 13.254 15H2.69049C2.15943 15 1.73017 14.553 1.73017 14V9.031H3.6508Z" fill="white"/>
<path d="M9.82343 10.9466L10.856 6.04601C10.8961 5.86158 10.8299 5.67059 10.6872 5.55598C10.5441 5.44047 10.3489 5.41994 10.1826 5.50245L8.8626 6.15731L8.25985 4.81071C7.04108 2.08789 3.87882 0.950203 1.20983 2.27432C1.00567 2.3756 0.892211 2.60742 0.935985 2.83255C0.943335 2.8706 0.955486 2.90735 0.970756 2.94147C1.0455 3.10844 1.20734 3.22014 1.39325 3.22226L1.64747 3.2256C3.30645 3.24402 4.76559 4.21184 5.45514 5.75235L6.22265 7.46701L4.90267 8.12187C4.73635 8.20438 4.62711 8.37596 4.62022 8.56479C4.61333 8.75361 4.71115 8.92889 4.87214 9.01468L9.11944 11.2959C9.25279 11.368 9.41365 11.3694 9.5518 11.3008C9.68996 11.2323 9.79134 11.1008 9.82343 10.9466Z" fill="white"/>
</g>
<defs>
<clipPath id="clip0_152:1431">
<rect width="13.4444" height="16" fill="white" transform="matrix(-1 0 0 1 14.2143 0)"/>
</clipPath>
</defs>
</svg>
