<svg width="18" height="18" viewBox="0 0 18 18" fill="none" xmlns="http://www.w3.org/2000/svg">
<path d="M15.3099 2.9848C11.9953 -0.329762 6.5938 -0.329762 3.27924 2.9848C-0.0353268 6.29936 -0.0353255 11.7009 3.27924 15.0154C6.5938 18.33 11.9953 18.33 15.3099 15.0154C18.6244 11.7009 18.6244 6.29937 15.3099 2.9848ZM9.90836 11.4554C9.90836 11.8236 9.60146 12.1305 9.23317 12.1305C9.04903 12.0692 8.92627 12.0692 8.80351 11.9464C8.68075 11.8236 8.61937 11.6395 8.61937 11.5167L8.61937 9.67531L6.77794 9.67531C6.40966 9.67531 6.10275 9.36841 6.10275 9.00012C6.10275 8.63183 6.40966 8.32493 6.77794 8.32493L8.61937 8.32493L8.61937 6.48351C8.61937 6.11522 8.92627 5.80832 9.29456 5.80832C9.66284 5.80832 9.96974 6.11522 9.96974 6.48351L9.96974 8.32493L11.8112 8.32493C12.1795 8.32493 12.4864 8.63184 12.4864 9.00012C12.4864 9.36841 12.1795 9.67531 11.8112 9.67531L9.96974 9.67531L9.90836 11.4554Z" fill="#27AE60"/>
</svg>
