<svg width="18" height="18" viewBox="0 0 18 18" fill="none" xmlns="http://www.w3.org/2000/svg">
<path d="M16.8628 1.15173C16.446 0.723913 15.8291 0.564529 15.2538 0.732302L1.83999 4.63302C1.23308 4.80163 0.802903 5.28565 0.687023 5.90054C0.568641 6.52633 0.982143 7.32074 1.52236 7.65293L5.71658 10.2308C6.14676 10.495 6.70199 10.4287 7.05796 10.0697L11.8608 5.237C12.1025 4.98534 12.5027 4.98534 12.7445 5.237C12.9862 5.48027 12.9862 5.87454 12.7445 6.1262L7.93332 10.9597C7.57651 11.3179 7.50982 11.8758 7.77242 12.3086L10.3351 16.5449C10.6353 17.0482 11.1521 17.3334 11.719 17.3334C11.7857 17.3334 11.8608 17.3334 11.9275 17.325C12.5777 17.2411 13.0946 16.7965 13.2863 16.1674L17.263 2.77074C17.438 2.20031 17.2796 1.57955 16.8628 1.15173Z" fill="#5A8DEE"/>
</svg>
