<svg width="20" height="20" viewBox="0 0 20 20" fill="none" xmlns="http://www.w3.org/2000/svg">
<path d="M3.58719 8.982L3.58718 8.98205C3.56806 9.09021 3.52744 9.19343 3.46779 9.28583C3.40815 9.37822 3.33071 9.45792 3.24005 9.52056L3.12637 9.35601L3.24005 9.52056C3.1494 9.58319 3.04726 9.62756 2.9395 9.65131C2.83174 9.67506 2.72031 9.67776 2.61151 9.65927C2.50271 9.64078 2.39851 9.60143 2.30488 9.54331C2.21123 9.48519 2.12992 9.40938 2.06574 9.32005C2.00155 9.23072 1.95579 9.12965 1.93125 9.02259L3.58719 8.982ZM3.58719 8.982C4.10262 6.06132 6.59254 3.4638 10.2511 3.4638L10.2523 3.4638C11.665 3.4638 12.8223 4.08657 13.7943 4.93424L13.7944 4.93431C14.496 5.54554 15.0643 6.23802 15.5462 6.85882M3.58719 8.982L15.5462 6.85882M17.9589 8.23686C18.1128 8.08594 18.2 7.88041 18.2 7.66525L18.2 4.02668C18.2 3.81153 18.1128 3.60599 17.9589 3.45507C17.8051 3.30428 17.5974 3.22025 17.3816 3.22025C17.1658 3.22025 16.958 3.30428 16.8042 3.45507C16.6503 3.60599 16.5631 3.81153 16.5631 4.02668L16.5631 5.43537C16.111 4.87648 15.5601 4.25076 14.9131 3.68672L14.9131 3.68671C13.7554 2.67757 12.2164 1.8 10.2511 1.8C5.67168 1.8 2.56151 5.08046 1.92303 8.69654L17.9589 8.23686ZM17.9589 8.23686C17.8051 8.38765 17.5974 8.47168 17.3816 8.47168L13.671 8.47168C13.4552 8.47168 13.2474 8.38765 13.0937 8.23686C12.9398 8.08594 12.8526 7.88041 12.8526 7.66525C12.8526 7.45009 12.9398 7.24456 13.0937 7.09364C13.2474 6.94285 13.4552 6.85882 13.671 6.85882L15.5462 6.85882M17.9589 8.23686L15.5462 6.85882M16.5156 10.8073L16.6836 10.9159L16.5156 10.8073C16.4556 10.9001 16.4148 11.0039 16.3957 11.1126C15.8424 13.995 13.3684 16.5362 9.74892 16.5362C8.33501 16.5362 7.1777 15.9134 6.20699 15.0658L6.20659 15.0655C5.50382 14.4552 4.93635 13.762 4.45279 13.1412L6.329 13.1412C6.54481 13.1412 6.75256 13.0571 6.90633 12.9064C7.06024 12.7554 7.14743 12.5499 7.14743 12.3347C7.14743 12.1196 7.06024 11.9141 6.90633 11.7631C6.75256 11.6123 6.54481 11.5283 6.329 11.5283L2.61843 11.5283C2.40262 11.5283 2.19488 11.6123 2.04111 11.7631C1.8872 11.9141 1.8 12.1196 1.8 12.3347L1.8 15.9733C1.8 16.1885 1.8872 16.394 2.04111 16.5449C2.19488 16.6957 2.40262 16.7797 2.61843 16.7797C2.83424 16.7797 3.04198 16.6957 3.19575 16.5449C3.34966 16.394 3.43686 16.1885 3.43686 15.9733L3.43686 14.5646C3.88895 15.1235 4.4399 15.7492 5.08688 16.3133L5.08697 16.3134C6.24586 17.3224 7.78361 18.2 9.74892 18.2C14.2782 18.2 17.3705 14.99 18.0551 11.4207C18.0775 11.3125 18.0779 11.2011 18.0561 11.0928C18.0343 10.984 17.9906 10.8807 17.9277 10.789C17.8649 10.6972 17.7843 10.619 17.6907 10.5585C17.5971 10.4981 17.4924 10.4567 17.3827 10.4365C17.273 10.4163 17.1603 10.4178 17.0512 10.4408C16.942 10.4638 16.8384 10.5079 16.7465 10.5708C16.6545 10.6336 16.576 10.714 16.5156 10.8073Z" fill="#27AE60" stroke="#27AE60" stroke-width="0.4"/>
</svg>
