<svg width="20" height="20" viewBox="0 0 20 20" fill="none" xmlns="http://www.w3.org/2000/svg">
<path d="M9.06782 7.01805L9.06782 10.4434C9.06782 10.7692 9.24387 11.0763 9.52183 11.2439L12.4127 12.9659C12.7462 13.1613 13.1724 13.0496 13.367 12.7239C13.5616 12.3888 13.4597 11.9606 13.1261 11.7651L10.4669 10.1735L10.4669 7.00874C10.4576 6.63642 10.1426 6.31995 9.76273 6.31995C9.38285 6.31995 9.06782 6.63642 9.06782 7.01805ZM18.3333 7.71615V2.79221C18.3333 2.37335 17.833 2.16857 17.5458 2.46643L15.8965 4.12326C15.0286 3.2513 13.9799 2.58234 12.8252 2.16403C11.6705 1.74573 10.4382 1.58837 9.21607 1.70317C5.33382 2.05688 2.13722 5.19368 1.711 9.09374C1.4857 11.2805 2.12515 13.4687 3.49141 15.1861C4.85766 16.9035 6.8412 18.0125 9.01412 18.274C11.187 18.5354 13.3752 17.9282 15.1065 16.5834C16.8377 15.2386 17.9734 13.2641 18.2685 11.0857C18.3333 10.5272 17.8979 10.0432 17.3419 10.0432C16.8787 10.0432 16.4895 10.3876 16.4339 10.8436C16.0355 14.0921 13.2466 16.6053 9.90172 16.5588C6.46421 16.5122 3.5641 13.5988 3.50851 10.1362C3.45292 6.50611 6.39009 3.52754 9.99437 3.52754C11.7826 3.52754 13.4041 4.26288 14.5808 5.43569L12.6443 7.38106C12.3478 7.67892 12.5517 8.18155 12.9686 8.18155L17.8701 8.18155C18.1295 8.18155 18.3333 7.97678 18.3333 7.71615Z" fill="#27AE60"/>
</svg>
